MFEM NURBS mesh v1.0

# Automatically generated mesh
# Extruded a second order NURBS mesh from 2D to 3D

dimension
3

elements
5
1 5 0 3 7 4 10 13 17 14
1 5 3 2 6 7 13 12 16 17
1 5 2 1 5 6 12 11 15 16
1 5 1 0 4 5 11 10 14 15
1 5 2 8 9 1 12 18 19 11

boundary
20
5 3 3 7 4 0
5 3 2 6 7 3
5 3 1 5 6 2
5 3 0 4 5 1
5 3 8 9 1 2
6 3 10 13 17 14
6 3 13 12 16 17
6 3 12 11 15 16
6 3 11 10 14 15
6 3 12 18 19 11
1 3 0 3 13 10
2 3 3 2 12 13
2 3 1 0 10 11
2 3 2 8 18 12
2 3 9 1 11 19
3 3 7 4 14 17
3 3 6 7 17 16
3 3 5 6 16 15
3 3 4 5 15 14
4 3 8 9 19 18

edges
40
0 0 4
0 10 14
0 3 7
0 13 17
0 1 5
0 11 15
0 2 6
0 12 16
1 0 3
1 10 13
1 4 7
1 14 17
2 3 2
2 13 12
2 7 6
2 17 16
2 1 0
2 11 10
2 5 4
2 15 14
1 2 1
1 12 11
1 6 5
1 16 15
1 8 9
1 18 19
3 2 8
3 12 18
3 1 9
3 11 19
4 0 10
4 1 11
4 2 12
4 3 13
4 4 14
4 5 15
4 6 16
4 7 17
4 8 18
4 9 19

vertices
20

patches

knotvectors
3
2 3 0 0 0 1 1 1
2 4 0 0 0 0.5 1 1 1
2 3 0 0 0 1 1 1

dimension
3

controlpoints_cartesian
-8 8 0 1
-8 0 0 1
-8 -8 0 1
-2.47593 2.47593 0 1
-4 0 0 0.707107
-2.47593 -2.47593 0 1
-0.424264 0.424264 0 1
-0.848528 0 0 0.707107
-0.424264 -0.424264 0 1
-0.353553 0.353553 0 1
-0.707107 0 0 0.707107
-0.353553 -0.353553 0 1
-8 8 2.5 1
-8 0 2.5 1
-8 -8 2.5 1
-2.47593 2.47593 2.5 1
-4 0 2.5 0.707107
-2.47593 -2.47593 2.5 1
-0.424264 0.424264 2.5 1
-0.848528 0 2.5 0.707107
-0.424264 -0.424264 2.5 1
-0.353553 0.353553 2.5 1
-0.707107 0 2.5 0.707107
-0.353553 -0.353553 2.5 1
-8 8 5 1
-8 0 5 1
-8 -8 5 1
-2.47593 2.47593 5 1
-4 0 5 0.707107
-2.47593 -2.47593 5 1
-0.424264 0.424264 5 1
-0.848528 0 5 0.707107
-0.424264 -0.424264 5 1
-0.353553 0.353553 5 1
-0.707107 0 5 0.707107
-0.353553 -0.353553 5 1

knotvectors
3
2 3 0 0 0 1 1 1
2 4 0 0 0 0.5 1 1 1
2 3 0 0 0 1 1 1

dimension
3

controlpoints_cartesian
-8 -8 0 1
0 -8 0 1
8 -8 0 1
-2.47593 -2.47593 0 1
0 -4 0 0.707107
2.47593 -2.47593 0 1
-0.424264 -0.424264 0 1
0 -0.848528 0 0.707107
0.424264 -0.424264 0 1
-0.353553 -0.353553 0 1
0 -0.707107 0 0.707107
0.353553 -0.353553 0 1
-8 -8 2.5 1
0 -8 2.5 1
8 -8 2.5 1
-2.47593 -2.47593 2.5 1
0 -4 2.5 0.707107
2.47593 -2.47593 2.5 1
-0.424264 -0.424264 2.5 1
0 -0.848528 2.5 0.707107
0.424264 -0.424264 2.5 1
-0.353553 -0.353553 2.5 1
0 -0.707107 2.5 0.707107
0.353553 -0.353553 2.5 1
-8 -8 5 1
0 -8 5 1
8 -8 5 1
-2.47593 -2.47593 5 1
0 -4 5 0.707107
2.47593 -2.47593 5 1
-0.424264 -0.424264 5 1
0 -0.848528 5 0.707107
0.424264 -0.424264 5 1
-0.353553 -0.353553 5 1
0 -0.707107 5 0.707107
0.353553 -0.353553 5 1

knotvectors
3
2 3 0 0 0 1 1 1
2 4 0 0 0 0.5 1 1 1
2 3 0 0 0 1 1 1

dimension
3

controlpoints_cartesian
8 -8 0 1
8 0 0 1
8 8 0 1
2.47593 -2.47593 0 1
4 0 0 0.707107
2.47593 2.47593 0 1
0.424264 -0.424264 0 1
0.848528 0 0 0.707107
0.424264 0.424264 0 1
0.353553 -0.353553 0 1
0.707107 0 0 0.707107
0.353553 0.353553 0 1
8 -8 2.5 1
8 0 2.5 1
8 8 2.5 1
2.47593 -2.47593 2.5 1
4 0 2.5 0.707107
2.47593 2.47593 2.5 1
0.424264 -0.424264 2.5 1
0.848528 0 2.5 0.707107
0.424264 0.424264 2.5 1
0.353553 -0.353553 2.5 1
0.707107 0 2.5 0.707107
0.353553 0.353553 2.5 1
8 -8 5 1
8 0 5 1
8 8 5 1
2.47593 -2.47593 5 1
4 0 5 0.707107
2.47593 2.47593 5 1
0.424264 -0.424264 5 1
0.848528 0 5 0.707107
0.424264 0.424264 5 1
0.353553 -0.353553 5 1
0.707107 0 5 0.707107
0.353553 0.353553 5 1

knotvectors
3
2 3 0 0 0 1 1 1
2 4 0 0 0 0.5 1 1 1
2 3 0 0 0 1 1 1

dimension
3

controlpoints_cartesian
8 8 0 1
0 8 0 1
-8 8 0 1
2.47593 2.47593 0 1
0 4 0 0.707107
-2.47593 2.47593 0 1
0.424264 0.424264 0 1
0 0.848528 0 0.707107
-0.424264 0.424264 0 1
0.353553 0.353553 0 1
0 0.707107 0 0.707107
-0.353553 0.353553 0 1
8 8 2.5 1
0 8 2.5 1
-8 8 2.5 1
2.47593 2.47593 2.5 1
0 4 2.5 0.707107
-2.47593 2.47593 2.5 1
0.424264 0.424264 2.5 1
0 0.848528 2.5 0.707107
-0.424264 0.424264 2.5 1
0.353553 0.353553 2.5 1
0 0.707107 2.5 0.707107
-0.353553 0.353553 2.5 1
8 8 5 1
0 8 5 1
-8 8 5 1
2.47593 2.47593 5 1
0 4 5 0.707107
-2.47593 2.47593 5 1
0.424264 0.424264 5 1
0 0.848528 5 0.707107
-0.424264 0.424264 5 1
0.353553 0.353553 5 1
0 0.707107 5 0.707107
-0.353553 0.353553 5 1

knotvectors
3
2 3 0 0 0 1 1 1
2 3 0 0 0 1 1 1
2 3 0 0 0 1 1 1

dimension
3

controlpoints_cartesian
8 -8 0 1
16 -8 0 1
32 -8 0 1
8 0 0 1
16 0 0 1
32 0 0 1
8 8 0 1
16 8 0 1
32 8 0 1
8 -8 2.5 1
16 -8 2.5 1
32 -8 2.5 1
8 0 2.5 1
16 0 2.5 1
32 0 2.5 1
8 8 2.5 1
16 8 2.5 1
32 8 2.5 1
8 -8 5 1
16 -8 5 1
32 -8 5 1
8 0 5 1
16 0 5 1
32 0 5 1
8 8 5 1
16 8 5 1
32 8 5 1

