# y =  0.12  +----+----+----+
#            | E5 | E6 | E7 |
# y =  0.01  +----+====+----+
#            | E3 |BODY| E4 |
# y = -0.01  +----+====+----+
#            | E0 | E1 | E2 |
#            +----+----+----+
#          -0.2  0.0  0.2  0.6


MFEM mesh v1.0

dimension
2

elements
8
1 3 0 1 5 4
1 3 1 2 6 5
1 3 2 3 7 6

1 3 4 5 9 8
1 3 6 7 11 10

1 3 8 9 13 12
1 3 9 10 14 13
1 3 10 11 15 14

boundary
16

# inlet
1 1 0 4
1 1 4 8
1 1 8 12

# bottom wall
2 1 0 1
2 1 1 2
2 1 2 3

# outlet
3 1 3 7
3 1 7 11
3 1 11 15

# top wall
4 1 15 14
4 1 14 13
4 1 13 12

# body interface
5 1 5 6
5 1 6 10
5 1 10 9
5 1 9 5

vertices
16
2

-0.2  -0.13
 0.0  -0.13
 0.2  -0.13
 0.6  -0.13

-0.2  -0.01
 0.0  -0.01
 0.2  -0.01
 0.6  -0.01

-0.2   0.01
 0.0   0.01
 0.2   0.01
 0.6   0.01

-0.2   0.12
 0.0   0.12
 0.2   0.12
 0.6   0.12
