
//+-------------------------------+
//|             TOP               |
//|                               |
//+----------+------+-------------+
//|   LEFT   |FLAP  |    RIGHT    |
//|          |hole  |             |
//+----------+------+-------------+
//|            BOTTOM             |
//+-------------------------------+

MFEM NURBS mesh v1.0

dimension
2

elements
4
1 1 0 1 4 3
1 1 1 2 5 4
1 1 3 4 7 6
1 1 4 5 8 7

boundary
8
1 1 0 1
1 1 1 2
1 1 2 5
1 1 5 8
1 1 8 7
1 1 7 6
1 1 6 3
1 1 3 0

vertices
9
2
-0.2  -0.13
 0.0  -0.13
 0.6  -0.13

-0.2  -0.01
 0.0  -0.01
 0.6  -0.01

-0.2   0.12
 0.0   0.12
 0.6   0.12

knotvectors
2
2
0 0 1 1
0 0 1 1
