MFEM NURBS mesh v1.0

#
# MFEM Geometry Types (see fem/geom.hpp):
#
# SEGMENT     = 1
# SQUARE      = 3
# CUBE        = 5
#

dimension
2

elements
4
1 3 0 1 5 4
1 3 2 3 6 5
1 3 4 5 8 7
1 3 5 6 9 8

boundary
10
1 1 0 1
1 1 1 5
1 1 4 0
1 1 2 3
1 1 3 6
2 1 5 2
1 1 8 7
1 1 7 4
1 1 6 9
1 1 9 8

edges
13
0 0 1
1 1 5
0 4 5
1 0 4
2 2 3
3 3 6
2 5 6
3 2 5
4 5 8
0 7 8
4 4 7
4 6 9
2 8 9

vertices
10

patches

knotvectors
2
1 2 0 0 1 1
1 2 0 0 1 1

dimension
2

controlpoints_cartesian
-1 -1 1
 0 -1 1
-1 0 1
 0 0 1

knotvectors
2
1 2 0 0 1 1
1 2 0 0 1 1

dimension
2

controlpoints_cartesian
0 -1 1
1 -1 1
0 0 1
1 0 1


knotvectors
2
1 2 0 0 1 1
1 2 0 0 1 1

dimension
2

controlpoints_cartesian
-1 0 1
 0 0 1
-1 1 1
 0 1 1

knotvectors
2
1 2 0 0 1 1
1 2 0 0 1 1

dimension
2

controlpoints_cartesian
0 0 1
1 0 1
0 1 1
1 1 1
